<svg width="20" height="19" viewBox="0 0 20 19" fill="none" xmlns="http://www.w3.org/2000/svg">
<g id="Frame">
<path id="Vector" d="M1.69645 9.75492C1.63894 9.59072 1.63894 9.41324 1.69645 9.24904C2.85229 5.94542 6.13312 3.5625 9.99979 3.5625C13.8648 3.5625 17.144 5.94304 18.3023 9.24508C18.3606 9.40896 18.3606 9.58629 18.3023 9.75096C17.1473 13.0546 13.8665 15.4375 9.99979 15.4375C6.13479 15.4375 2.85479 13.057 1.69645 9.75492Z" stroke="black" stroke-opacity="0.49" stroke-width="1.5" stroke-linecap="round" stroke-linejoin="round"/>
<path id="Vector_2" d="M12.5 9.5C12.5 10.1299 12.2366 10.734 11.7678 11.1794C11.2989 11.6248 10.663 11.875 10 11.875C9.33696 11.875 8.70107 11.6248 8.23223 11.1794C7.76339 10.734 7.5 10.1299 7.5 9.5C7.5 8.87011 7.76339 8.26602 8.23223 7.82062C8.70107 7.37522 9.33696 7.125 10 7.125C10.663 7.125 11.2989 7.37522 11.7678 7.82062C12.2366 8.26602 12.5 8.87011 12.5 9.5Z" stroke="black" stroke-opacity="0.49" stroke-width="1.5" stroke-linecap="round" stroke-linejoin="round"/>
</g>
</svg>
